<svg viewBox="0 0 732 181" fill="none" xmlns="http://www.w3.org/2000/svg">
    <path d="M81.2326 124.701C68.235 135.69 56.3208 135.509 40.0742 135.509H-0.000747681V9.76474H38.8106C53.9741 9.76474 68.235 9.94489 79.2469 22.0149C84.4814 27.7797 86.8284 34.9857 86.8284 42.7322C86.8284 53.361 81.5933 62.7288 72.2064 68.1335C85.9261 72.8171 92.9659 83.0859 92.9659 97.3179C92.7856 107.406 89.1748 118.035 81.2326 124.701ZM43.3235 38.0482H30.8678V57.6846H43.143C50.1832 57.6846 55.9598 55.703 55.9598 47.5962C55.9598 39.4895 49.8222 38.0482 43.3235 38.0482ZM46.9339 84.3471H30.6873V107.226H46.7534C54.6962 107.226 61.9169 104.524 61.9169 95.1555C61.9169 86.3287 54.5156 84.3471 46.9339 84.3471Z"
          fill="#C3FF23"/>
    <path d="M147.111 138.569C118.229 138.569 96.2053 117.311 96.2053 88.4868C96.2053 59.663 118.229 38.4054 147.111 38.4054C175.995 38.4054 198.018 59.663 198.018 88.4868C198.018 117.311 175.995 138.569 147.111 138.569ZM147.111 64.5271C133.934 64.5271 124.547 75.5161 124.547 88.3068C124.547 101.097 134.114 112.087 147.111 112.087C160.109 112.087 169.676 101.097 169.676 88.3068C169.676 75.5161 160.109 64.5271 147.111 64.5271Z"
          fill="#C3FF23"/>
    <path d="M229.615 87.428V135.708H201.274V41.3094H227.81V55.0009H228.171C233.045 45.2728 240.988 41.6697 251.819 41.6697V70.1333C239.363 70.3134 229.615 72.8359 229.615 87.428Z"
          fill="#C3FF23"/>
    <path d="M317.176 135.528V84.1848C317.176 73.5558 315.19 64.5487 302.373 64.5487C289.195 64.5487 286.126 73.0156 286.126 84.1848V135.528H257.785V41.3093H284.141V51.3977H284.502C290.459 41.6696 298.763 38.0666 310.135 38.0666C318.078 38.0666 328.187 41.1292 334.325 46.1734C343.351 53.7397 345.155 65.6296 345.155 76.6186V135.528H317.176Z"
          fill="#C3FF23"/>
    <path d="M410.488 135.518V62.7378H386.118V135.699H357.777V62.7378H347.127V41.3H357.777V36.2558C357.777 13.3768 374.204 7.43182 393.881 7.43182H398.213V28.6895C387.924 28.6895 386.118 30.6712 386.118 41.3H438.83V135.699L410.488 135.518ZM410.488 31.2116V9.77377H438.83V31.2116H410.488Z"
          fill="#C3FF23"/>
    <path d="M538.845 155.323C529.458 171.176 508.156 177.661 491.007 177.661C474.941 177.661 459.056 172.797 449.668 159.106C446.6 154.602 444.614 149.738 443.892 144.514H476.566C479.634 151.36 486.133 153.881 493.174 153.881C508.698 153.881 516.099 143.252 516.099 128.3V125.417H515.738C510.864 134.605 499.852 138.929 489.924 138.929C461.583 138.929 442.267 116.771 442.267 89.2078C442.267 61.4645 461.222 38.4054 489.924 38.4054C499.672 38.4054 510.503 41.648 515.919 50.2952H516.28V41.4679H544.621V124.337C544.44 134.786 544.26 145.955 538.845 155.323ZM493.174 64.5271C479.996 64.5271 470.429 75.1559 470.429 87.9466C470.429 101.097 479.454 112.267 492.993 112.267C506.532 112.267 516.099 102.359 516.099 88.847C516.099 75.336 507.254 64.5271 493.174 64.5271Z"
          fill="#C3FF23"/>
    <path d="M610.339 135.509V84.3471C610.339 74.0783 607.451 64.7105 595.176 64.7105C582.9 64.7105 579.29 72.637 579.29 83.446V135.87H550.949V9.76474H579.29V49.9381H579.651C584.525 41.1108 594.454 38.0482 604.021 38.0482C613.227 38.0482 623.697 41.291 629.654 48.4969C638.68 58.9456 638.5 70.1151 638.5 83.0859V135.87H610.339V135.509Z"
          fill="#C3FF23"/>
    <path d="M679.296 62.7288V135.689H650.956V62.7288H638.862V41.291H650.956V9.76474H679.296V41.291H692.837V62.7288H679.296Z"
          fill="#C3FF23"/>
    <path d="M731.99 115.525C731.99 118.227 731.445 120.749 730.367 123.271C729.282 125.793 727.838 127.955 726.034 129.576C724.224 131.378 722.062 132.819 719.713 133.9C717.364 134.981 714.662 135.521 711.953 135.521C709.245 135.521 706.716 134.981 704.188 133.9C701.659 132.819 699.496 131.378 697.872 129.576C696.062 127.775 694.618 125.613 693.54 123.271C692.456 120.749 691.917 118.227 691.917 115.525C691.917 112.822 692.456 110.3 693.54 107.778C694.618 105.256 696.062 103.094 697.872 101.473C699.676 99.8515 701.845 98.23 704.188 97.1495C706.537 96.0684 709.245 95.5281 711.953 95.5281C714.662 95.5281 717.184 96.0684 719.713 97.1495C722.241 98.23 724.404 99.6714 726.034 101.473C727.838 103.274 729.282 105.436 730.367 107.778C731.445 110.12 731.99 112.822 731.99 115.525ZM711.953 99.1311C709.784 99.1311 707.621 99.4913 705.632 100.392C703.649 101.293 701.845 102.373 700.401 103.815C698.957 105.256 697.693 107.058 696.967 109.039C696.062 111.021 695.703 113.182 695.703 115.344C695.703 117.506 696.062 119.668 696.967 121.65C697.872 123.631 698.957 125.433 700.401 126.874C701.845 128.315 703.649 129.576 705.632 130.297C707.621 131.017 709.784 131.558 711.953 131.558C714.116 131.558 716.286 131.197 718.269 130.297C720.258 129.396 722.062 128.315 723.506 126.874C724.95 125.433 726.214 123.631 726.933 121.65C727.658 119.668 728.197 117.506 728.197 115.344C728.197 113.182 727.838 111.021 726.933 109.039C726.034 107.058 724.95 105.256 723.506 103.815C722.062 102.373 720.258 101.113 718.269 100.392C716.286 99.4913 714.296 99.1311 711.953 99.1311ZM716.465 117.686L720.977 125.973C721.157 126.153 721.157 126.514 720.977 126.694C720.797 126.874 720.618 127.054 720.438 127.054H717.004C716.645 127.054 716.465 126.874 716.465 126.694L712.133 118.587H708.699V126.333C708.699 126.514 708.699 126.694 708.52 126.874C708.34 127.054 708.16 127.054 707.981 127.054H704.913C704.733 127.054 704.547 127.054 704.367 126.874C704.188 126.694 704.188 126.514 704.188 126.333V104.896C704.188 104.716 704.188 104.536 704.367 104.355C704.547 104.175 704.733 104.175 704.913 104.175H711.408C713.397 104.175 714.662 104.355 715.74 104.716C717.004 105.256 718.089 105.976 718.808 107.238C719.533 108.319 719.892 109.759 719.892 111.201C719.892 112.642 719.533 113.723 718.994 114.984C718.269 116.065 717.55 116.965 716.465 117.686C716.286 117.326 716.286 117.506 716.465 117.686ZM715.201 111.201C715.201 109.94 714.842 109.039 713.936 108.499C713.397 108.319 712.492 108.139 711.228 108.139H708.52V114.444H712.133C713.031 114.444 713.936 114.083 714.475 113.543C715.021 113.002 715.201 112.282 715.201 111.201Z"
          fill="#C3FF23"/>
</svg>
