<svg viewBox="0 0 603 140" fill="none" xmlns="http://www.w3.org/2000/svg">
    <path d="M66.9176 96.396C56.2106 105.399 46.396 105.251 33.0125 105.251H0V2.22827H31.9716C44.4629 2.22827 56.2106 2.37587 65.2819 12.2649C69.5939 16.988 71.5273 22.892 71.5273 29.2387C71.5273 37.947 67.2148 45.6221 59.4821 50.0502C70.784 53.8874 76.5832 62.3007 76.5832 73.9611C76.4346 82.2263 73.4602 90.9347 66.9176 96.396ZM35.6893 25.4011H25.4286V41.4894H35.5405C41.3401 41.4894 46.0986 39.8658 46.0986 33.2239C46.0986 26.5819 41.0426 25.4011 35.6893 25.4011ZM38.6634 63.3341H25.2799V82.0788H38.5146C45.0577 82.0788 51.0059 79.8651 51.0059 72.1895C51.0059 64.9576 44.909 63.3341 38.6634 63.3341Z"
          fill="#23094E"/>
    <path d="M121.188 107.758C97.395 107.758 79.2529 90.3417 79.2529 66.7259C79.2529 43.1103 97.395 25.6938 121.188 25.6938C144.981 25.6938 163.123 43.1103 163.123 66.7259C163.123 90.3417 144.981 107.758 121.188 107.758ZM121.188 47.0955C110.333 47.0955 102.6 56.0989 102.6 66.5784C102.6 77.0578 110.481 86.0613 121.188 86.0613C131.895 86.0613 139.776 77.0578 139.776 66.5784C139.776 56.0989 131.895 47.0955 121.188 47.0955Z"
          fill="#23094E"/>
    <path d="M189.149 65.858V105.414H165.803V28.0728H187.663V39.2902H187.96C191.975 31.3199 198.518 28.368 207.44 28.368V51.6883C197.18 51.8358 189.149 53.9026 189.149 65.858Z"
          fill="#23094E"/>
    <path d="M261.282 105.267V63.2014C261.282 54.4931 259.646 47.1134 249.087 47.1134C238.232 47.1134 235.704 54.0504 235.704 63.2014V105.267H212.357V28.0733H234.068V36.3388H234.366C239.273 28.3685 246.113 25.4165 255.482 25.4165C262.025 25.4165 270.352 27.9257 275.408 32.0585C282.844 38.2576 284.33 47.999 284.33 57.0024V105.267H261.282Z"
          fill="#23094E"/>
    <path d="M338.147 105.259V45.6292H318.072V105.407H294.726V45.6292H285.952V28.0651H294.726V23.9323C294.726 5.1874 308.258 0.31665 324.467 0.31665H328.036V17.7332C319.56 17.7332 318.072 19.3568 318.072 28.0651H361.494V105.407L338.147 105.259ZM338.147 19.7996V2.23542H361.494V19.7996H338.147Z"
          fill="#23094E"/>
    <path d="M443.884 121.485C436.151 134.473 418.604 139.787 404.477 139.787C391.242 139.787 378.156 135.802 370.423 124.585C367.895 120.894 366.26 116.91 365.665 112.629H392.581C395.108 118.238 400.462 120.304 406.262 120.304C419.05 120.304 425.147 111.596 425.147 99.3452V96.9834H424.849C420.834 104.511 411.763 108.054 403.585 108.054C380.238 108.054 364.326 89.8991 364.326 67.3166C364.326 44.5863 379.941 25.6938 403.585 25.6938C411.615 25.6938 420.537 28.3506 424.998 35.4353H425.296V28.203H448.643V96.0981C448.493 104.659 448.345 113.81 443.884 121.485ZM406.262 47.0955C395.406 47.0955 387.525 55.8038 387.525 66.2833C387.525 77.0578 394.96 86.2089 406.112 86.2089C417.266 86.2089 425.147 78.0912 425.147 67.021C425.147 55.9513 417.861 47.0955 406.262 47.0955Z"
          fill="#23094E"/>
    <path d="M502.778 105.251V63.3341C502.778 54.9208 500.399 47.2456 490.287 47.2456C480.175 47.2456 477.201 53.7399 477.201 62.5958V105.547H453.854V2.22827H477.201V35.1426H477.499C481.514 27.9103 489.692 25.4011 497.574 25.4011C505.158 25.4011 513.782 28.0579 518.69 33.9618C526.125 42.5225 525.977 51.6737 525.977 62.3007V105.547H502.778V105.251Z"
          fill="#23094E"/>
    <path d="M559.583 45.6221V105.399H536.239V45.6221H526.275V28.0579H536.239V2.22827H559.583V28.0579H570.739V45.6221H559.583Z"
          fill="#23094E"/>
    <path d="M602.994 88.8778C602.994 91.0915 602.544 93.1577 601.656 95.2244C600.763 97.2906 599.573 99.0616 598.088 100.39C596.597 101.866 594.815 103.047 592.88 103.933C590.945 104.818 588.719 105.261 586.488 105.261C584.257 105.261 582.174 104.818 580.091 103.933C578.008 103.047 576.226 101.866 574.889 100.39C573.398 98.9141 572.208 97.143 571.32 95.2244C570.426 93.1577 569.982 91.0915 569.982 88.8778C569.982 86.6636 570.426 84.5974 571.32 82.5307C572.208 80.4645 573.398 78.6934 574.889 77.365C576.374 76.0365 578.161 74.7081 580.091 73.8228C582.026 72.937 584.257 72.4944 586.488 72.4944C588.719 72.4944 590.797 72.937 592.88 73.8228C594.963 74.7081 596.745 75.889 598.088 77.365C599.573 78.841 600.763 80.6121 601.656 82.5307C602.544 84.4498 602.994 86.6636 602.994 88.8778ZM586.488 75.4464C584.701 75.4464 582.92 75.7415 581.28 76.4792C579.647 77.2174 578.161 78.1027 576.972 79.2836C575.782 80.4645 574.741 81.9405 574.143 83.564C573.398 85.1876 573.102 86.9586 573.102 88.7297C573.102 90.5013 573.398 92.2724 574.143 93.896C574.889 95.5195 575.782 96.9955 576.972 98.1764C578.161 99.3573 579.647 100.39 581.28 100.981C582.92 101.571 584.701 102.014 586.488 102.014C588.27 102.014 590.057 101.719 591.69 100.981C593.329 100.243 594.815 99.3573 596.005 98.1764C597.194 96.9955 598.236 95.5195 598.828 93.896C599.425 92.2724 599.869 90.5013 599.869 88.7297C599.869 86.9586 599.573 85.1876 598.828 83.564C598.088 81.9405 597.194 80.4645 596.005 79.2836C594.815 78.1027 593.329 77.0699 591.69 76.4792C590.057 75.7415 588.418 75.4464 586.488 75.4464ZM590.205 90.6489L593.922 97.4381C594.07 97.5857 594.07 97.8813 593.922 98.0288C593.774 98.1764 593.626 98.3239 593.478 98.3239H590.649C590.353 98.3239 590.205 98.1764 590.205 98.0288L586.636 91.3866H583.808V97.7332C583.808 97.8813 583.808 98.0288 583.66 98.1764C583.512 98.3239 583.364 98.3239 583.216 98.3239H580.688C580.54 98.3239 580.387 98.3239 580.239 98.1764C580.091 98.0288 580.091 97.8813 580.091 97.7332V80.1694C580.091 80.0219 580.091 79.8743 580.239 79.7262C580.387 79.5787 580.54 79.5787 580.688 79.5787H586.039C587.678 79.5787 588.719 79.7262 589.607 80.0219C590.649 80.4645 591.542 81.0547 592.134 82.088C592.732 82.9739 593.028 84.1542 593.028 85.3351C593.028 86.516 592.732 87.4018 592.288 88.4346C591.69 89.3204 591.098 90.0582 590.205 90.6489C590.057 90.5013 590.057 90.3538 590.205 90.6489ZM589.163 85.3351C589.163 84.3018 588.867 83.564 588.122 83.1214C587.678 82.9738 586.932 82.8263 585.891 82.8263H583.66V87.992H586.636C587.376 87.992 588.122 87.6969 588.566 87.2537C589.015 86.8111 589.163 86.2209 589.163 85.3351Z"
          fill="#23094E"/>
</svg>
