<svg width="128" height="128" viewBox="0 0 128 128" fill="none" xmlns="http://www.w3.org/2000/svg">
<path d="M89.2699 42.3146C95.7263 38.0513 99.6607 31.961 99.7615 24.2465C99.7615 18.6637 98.1474 14.8064 94.4148 10.7462C88.362 4.96034 76.7607 4.04679 65.6638 10.3402L24.1009 32.773L24 121.692L66.37 98.6504C78.9801 91.6465 85.9409 88.7028 95.7263 82.1049C101.275 77.4357 103.999 70.2287 103.999 63.1233C104.099 52.9727 99.0554 45.6643 89.2699 42.3146ZM41.0489 43.8372L70.8087 27.2917C75.4492 24.754 79.9889 26.2766 79.7871 31.1489C79.5854 35.4122 76.1554 38.2543 70.7078 41.0965L41.0489 57.642V43.8372ZM74.2387 75.7101L41.0489 93.7781V77.4357L74.2387 59.1646C79.2827 56.4239 84.932 58.251 84.932 64.2399C85.0329 69.8227 79.888 72.5634 74.2387 75.7101Z" fill="#23094E"/>
</svg>
